<svg xmlns="http://www.w3.org/2000/svg" viewBox="0 0 512 512">
  <rect width="512" height="512" fill="#dc2626" rx="112" ry="112"/>
  <g transform="translate(128, 64) scale(10.66)" fill="none" stroke="#ffffff" stroke-width="2" stroke-linecap="round" stroke-linejoin="round">
    <circle cx="12.5" cy="8.5" r="2.5"/>
    <path d="M12.5 2a6.5 6.5 0 0 0-6.22 4.6c-1.1 3.13-.78 3.9-3.18 6.08A3 3 0 0 0 5 18c4 0 8.4-1.8 11.4-4.3A6.5 6.5 0 0 0 12.5 2Z"/>
    <path d="m18.5 6 2.19 3.42c.36.56.58 1.2.64 1.87A3.22 3.22 0 0 1 18.1 15h-1.3"/>
  </g>
  <text x="256" y="430" font-family="system-ui, -apple-system, sans-serif" font-weight="900" font-size="140" fill="#ffffff" text-anchor="middle" letter-spacing="-4">BN</text>
</svg>
